<svg width="21" height="20" viewBox="0 0 21 20" fill="none" xmlns="http://www.w3.org/2000/svg">
<rect x="0.875" y="0.5" width="19" height="19" rx="3.5" fill="#EEC020" fill-opacity="0.2" stroke="#EEC020"/>
<path d="M8.08 9.16175V12.3477H7.432V9.79175H6.289V9.16175H8.08ZM8.08 12.0777C8.503 12.7437 9.295 13.0497 10.366 13.0857C11.365 13.1307 13.444 13.1037 14.533 13.0317C14.452 13.1847 14.344 13.4997 14.317 13.6977C13.3 13.7427 11.374 13.7607 10.366 13.7157C9.178 13.6707 8.359 13.3557 7.801 12.6447C7.405 13.0317 6.991 13.4187 6.541 13.8147L6.19 13.1577C6.586 12.8697 7.072 12.4647 7.495 12.0777H8.08ZM6.37 6.20975L6.883 5.84075C7.441 6.24575 8.071 6.86675 8.35 7.30775L7.792 7.73075C7.54 7.28075 6.919 6.65075 6.37 6.20975ZM12.094 5.69675L12.823 5.85875C12.562 6.43475 12.238 7.09175 11.986 7.51475L11.428 7.35275C11.671 6.89375 11.95 6.19175 12.094 5.69675ZM9.952 7.01975H14.182V7.60475H9.952V11.8887H9.295V7.53275L9.799 7.01975H9.952ZM9.646 8.54975H13.957V9.11675H9.646V8.54975ZM9.646 10.0617H13.939V10.6377H9.646V10.0617ZM9.295 11.6187H14.335V12.2037H9.295V11.6187ZM11.527 7.28975H12.175V11.8437H11.527V7.28975ZM10.087 5.63375L10.753 5.82275C10.231 7.10075 9.385 8.28875 8.494 9.05375C8.386 8.91875 8.134 8.65775 7.981 8.54075C8.854 7.84775 9.628 6.77675 10.087 5.63375Z" fill="#EEC020"/>
</svg>
