<svg width="21" height="20" viewBox="0 0 21 20" fill="none" xmlns="http://www.w3.org/2000/svg">
<rect x="0.875" y="0.5" width="19" height="19" rx="3.5" fill="#6CC25E" fill-opacity="0.2" stroke="#6CC25E"/>
<path d="M13.867 9.80975L14.371 10.2147C13.912 10.6737 13.336 11.1687 12.886 11.4927L12.472 11.1417C12.904 10.8087 13.525 10.2237 13.867 9.80975ZM9.718 10.2597L10.186 9.89075C10.573 10.2237 11.041 10.7097 11.239 11.0517L10.753 11.4567C10.564 11.1147 10.114 10.6107 9.718 10.2597ZM10.708 6.32675H13.318V6.85775H10.708V6.32675ZM10.438 7.64975H13.129V8.18975H10.438V7.64975ZM9.466 8.84675H14.416V9.44075H9.466V8.84675ZM11.626 9.05375H12.238V13.2027C12.238 13.5357 12.184 13.7067 11.95 13.7967C11.725 13.9047 11.365 13.9047 10.834 13.9047C10.807 13.7337 10.726 13.4997 10.645 13.3197C11.023 13.3377 11.374 13.3377 11.482 13.3287C11.59 13.3287 11.626 13.3017 11.626 13.1937V9.05375ZM9.196 12.8427C9.709 12.5637 10.483 12.0597 11.239 11.5737L11.446 12.0867C10.798 12.5547 10.114 13.0407 9.538 13.4367L9.196 12.8427ZM12.193 9.10775C12.418 10.4757 13.021 12.1677 14.614 12.9147C14.479 13.0407 14.281 13.3017 14.191 13.4727C12.625 12.6087 12.031 10.8357 11.806 9.58475L12.193 9.10775ZM10.645 5.61575L11.284 5.69675C11.077 6.60575 10.78 7.76675 10.555 8.47775L9.925 8.38775C10.15 7.66775 10.465 6.48875 10.645 5.61575ZM13.066 6.32675H13.129L13.246 6.29075L13.705 6.36275C13.579 7.19075 13.363 8.31575 13.156 9.16175L12.535 9.08075C12.733 8.23475 12.967 7.02875 13.066 6.40775V6.32675ZM7.639 5.61575L8.233 5.84075C7.891 6.50675 7.468 7.31675 7.117 7.81175L6.658 7.61375C6.982 7.09175 7.405 6.20975 7.639 5.61575ZM8.647 6.64175L9.214 6.90275C8.593 7.90175 7.72 9.17975 7.045 9.96275L6.631 9.72875C7.306 8.92775 8.152 7.58675 8.647 6.64175ZM6.199 7.48775L6.559 7.05575C7.045 7.49675 7.594 8.09975 7.828 8.51375L7.441 9.01775C7.216 8.58575 6.676 7.94675 6.199 7.48775ZM8.296 8.70275L8.782 8.49575C9.16 9.08975 9.529 9.86375 9.655 10.3587L9.124 10.6017C9.007 10.0977 8.656 9.29675 8.296 8.70275ZM6.127 9.59375C6.91 9.55775 8.035 9.50375 9.169 9.44075V10.0077C8.098 10.0797 7.018 10.1427 6.199 10.1967L6.127 9.59375ZM8.53 10.8807L9.025 10.7277C9.259 11.2497 9.448 11.9247 9.511 12.3657L8.989 12.5277C8.935 12.0867 8.746 11.4027 8.53 10.8807ZM6.667 10.7547L7.234 10.8537C7.117 11.7087 6.91 12.5727 6.622 13.1487C6.514 13.0767 6.244 12.9597 6.109 12.8967C6.397 12.3477 6.568 11.5377 6.667 10.7547ZM7.621 9.85475H8.215V13.8867H7.621V9.85475Z" fill="#6CC25E"/>
</svg>
