<svg width="21" height="20" viewBox="0 0 21 20" fill="none" xmlns="http://www.w3.org/2000/svg">
<rect x="0.875" y="0.5" width="19" height="19" rx="3.5" fill="#5195C7" fill-opacity="0.2" stroke="#5195C7"/>
<path d="M6.388 6.20075H14.398V6.78575H6.388V6.20075ZM11.266 8.21675H14.281V8.76575H11.266V8.21675ZM11.113 9.92675H14.074V10.4757H11.113V9.92675ZM8.512 5.61575H9.178V7.30775H8.512V5.61575ZM8.404 7.63175H8.98V8.67575H8.404V7.63175ZM8.404 9.55775H8.98V10.6017H8.404V9.55775ZM11.527 5.61575H12.193V7.30775H11.527V5.61575ZM6.343 13.0407H14.416V13.6167H6.343V13.0407ZM7.315 11.1867H13.543V13.3377H12.886V11.7177H11.617V13.3377H11.032V11.7177H9.772V13.3377H9.187V11.7177H7.945V13.3377H7.315V11.1867ZM11.473 7.34375L12.094 7.48775C11.815 8.33375 11.347 9.16175 10.834 9.69275C10.726 9.59375 10.465 9.41375 10.312 9.33275C10.816 8.83775 11.239 8.09975 11.473 7.34375ZM7.117 8.40575H10.24V9.82775H7.117V9.41375H9.682V8.81975H7.117V8.40575ZM10.465 7.46075V7.91075H7.369V10.3497H10.528V10.7997H6.802V7.46075H10.465Z" fill="#5195C7"/>
</svg>
